<svg width="241" height="93" viewBox="0 0 241 93" fill="none" xmlns="http://www.w3.org/2000/svg">
<g filter="url(#filter0_b_7_70)">
<path d="M20.2996 42.4H15.8596V35.5H20.2996V31.78C20.2996 28.74 21.0996 26.46 22.6996 24.94C24.2996 23.38 26.6396 22.6 29.7196 22.6H35.4796V29.5H29.1796V35.5H35.4796V42.4H29.1796V67H20.2996V42.4ZM49.2393 67C46.1993 67 43.9593 66.26 42.5193 64.78C41.1193 63.3 40.4193 61.16 40.4193 58.36V22.6H49.2993V60.1H53.2593V67H49.2393ZM63.0234 32.14C61.2234 32.14 59.9034 31.74 59.0634 30.94C58.2634 30.1 57.8634 29.04 57.8634 27.76V26.44C57.8634 25.16 58.2634 24.12 59.0634 23.32C59.9034 22.48 61.2234 22.06 63.0234 22.06C64.8234 22.06 66.1234 22.48 66.9234 23.32C67.7634 24.12 68.1834 25.16 68.1834 26.44V27.76C68.1834 29.04 67.7634 30.1 66.9234 30.94C66.1234 31.74 64.8234 32.14 63.0234 32.14ZM58.5834 35.5H67.4634V67H58.5834V35.5ZM72.6913 67L83.0713 50.98L72.8113 35.5H82.8913L88.7713 45.4H89.0113L94.7113 35.5H104.071L93.6313 51.28L104.131 67H94.0513L87.9913 56.74H87.7513L81.9313 67H72.6913ZM119.771 67.72C116.731 67.72 114.171 67.24 112.091 66.28C110.011 65.28 108.151 63.88 106.511 62.08L111.731 56.8C112.851 58.04 114.091 59.02 115.451 59.74C116.811 60.46 118.351 60.82 120.071 60.82C121.831 60.82 123.051 60.56 123.731 60.04C124.411 59.48 124.751 58.74 124.751 57.82C124.751 56.34 123.691 55.46 121.571 55.18L118.151 54.76C111.071 53.88 107.531 50.64 107.531 45.04C107.531 43.52 107.811 42.14 108.371 40.9C108.971 39.62 109.791 38.54 110.831 37.66C111.911 36.74 113.191 36.04 114.671 35.56C116.191 35.04 117.891 34.78 119.771 34.78C121.411 34.78 122.851 34.9 124.091 35.14C125.371 35.34 126.491 35.66 127.451 36.1C128.451 36.5 129.351 37.02 130.151 37.66C130.991 38.26 131.811 38.94 132.611 39.7L127.511 44.92C126.511 43.92 125.371 43.14 124.091 42.58C122.851 41.98 121.571 41.68 120.251 41.68C118.731 41.68 117.651 41.92 117.011 42.4C116.371 42.88 116.051 43.52 116.051 44.32C116.051 45.16 116.271 45.82 116.711 46.3C117.191 46.74 118.071 47.06 119.351 47.26L122.891 47.74C129.811 48.66 133.271 51.82 133.271 57.22C133.271 58.74 132.951 60.14 132.311 61.42C131.671 62.7 130.751 63.82 129.551 64.78C128.391 65.7 126.971 66.42 125.291 66.94C123.651 67.46 121.811 67.72 119.771 67.72ZM149.897 67C146.817 67 144.477 66.22 142.877 64.66C141.317 63.1 140.537 60.82 140.537 57.82V42.4H136.097V35.5H138.317C139.517 35.5 140.337 35.22 140.777 34.66C141.217 34.06 141.437 33.22 141.437 32.14V26.98H149.417V35.5H155.657V42.4H149.417V60.1H155.177V67H149.897ZM174.731 67.72C172.331 67.72 170.191 67.34 168.311 66.58C166.431 65.78 164.831 64.68 163.511 63.28C162.231 61.84 161.251 60.1 160.571 58.06C159.931 56.02 159.611 53.74 159.611 51.22C159.611 48.74 159.931 46.5 160.571 44.5C161.211 42.46 162.151 40.72 163.391 39.28C164.671 37.84 166.231 36.74 168.071 35.98C169.911 35.18 172.011 34.78 174.371 34.78C176.971 34.78 179.191 35.22 181.031 36.1C182.911 36.98 184.431 38.16 185.591 39.64C186.791 41.12 187.651 42.84 188.171 44.8C188.731 46.72 189.011 48.74 189.011 50.86V53.5H168.791V53.98C168.791 56.06 169.351 57.72 170.471 58.96C171.591 60.16 173.351 60.76 175.751 60.76C177.591 60.76 179.091 60.4 180.251 59.68C181.411 58.92 182.491 58.02 183.491 56.98L187.931 62.5C186.531 64.14 184.691 65.42 182.411 66.34C180.171 67.26 177.611 67.72 174.731 67.72ZM174.551 41.32C172.751 41.32 171.331 41.92 170.291 43.12C169.291 44.28 168.791 45.84 168.791 47.8V48.28H179.831V47.74C179.831 45.82 179.391 44.28 178.511 43.12C177.671 41.92 176.351 41.32 174.551 41.32ZM195.283 67V35.5H204.163V42.34H204.463C204.623 41.46 204.903 40.62 205.303 39.82C205.703 38.98 206.223 38.24 206.863 37.6C207.543 36.96 208.343 36.46 209.263 36.1C210.183 35.7 211.263 35.5 212.503 35.5H214.063V43.78H211.843C209.243 43.78 207.303 44.12 206.023 44.8C204.783 45.48 204.163 46.74 204.163 48.58V67H195.283Z" fill="#E38CF1"/>
<path d="M20.2996 42.4H20.7996V41.9H20.2996V42.4ZM15.8596 42.4H15.3596V42.9H15.8596V42.4ZM15.8596 35.5V35H15.3596V35.5H15.8596ZM20.2996 35.5V36H20.7996V35.5H20.2996ZM22.6996 24.94L23.044 25.3025L23.0487 25.298L22.6996 24.94ZM35.4796 22.6H35.9796V22.1H35.4796V22.6ZM35.4796 29.5V30H35.9796V29.5H35.4796ZM29.1796 29.5V29H28.6796V29.5H29.1796ZM29.1796 35.5H28.6796V36H29.1796V35.5ZM35.4796 35.5H35.9796V35H35.4796V35.5ZM35.4796 42.4V42.9H35.9796V42.4H35.4796ZM29.1796 42.4V41.9H28.6796V42.4H29.1796ZM29.1796 67V67.5H29.6796V67H29.1796ZM20.2996 67H19.7996V67.5H20.2996V67ZM20.2996 41.9H15.8596V42.9H20.2996V41.9ZM16.3596 42.4V35.5H15.3596V42.4H16.3596ZM15.8596 36H20.2996V35H15.8596V36ZM20.7996 35.5V31.78H19.7996V35.5H20.7996ZM20.7996 31.78C20.7996 28.8238 21.5763 26.6968 23.044 25.3025L22.3552 24.5775C20.6229 26.2232 19.7996 28.6562 19.7996 31.78H20.7996ZM23.0487 25.298C24.5246 23.8589 26.7199 23.1 29.7196 23.1V22.1C26.5594 22.1 24.0746 22.9011 22.3506 24.582L23.0487 25.298ZM29.7196 23.1H35.4796V22.1H29.7196V23.1ZM34.9796 22.6V29.5H35.9796V22.6H34.9796ZM35.4796 29H29.1796V30H35.4796V29ZM28.6796 29.5V35.5H29.6796V29.5H28.6796ZM29.1796 36H35.4796V35H29.1796V36ZM34.9796 35.5V42.4H35.9796V35.5H34.9796ZM35.4796 41.9H29.1796V42.9H35.4796V41.9ZM28.6796 42.4V67H29.6796V42.4H28.6796ZM29.1796 66.5H20.2996V67.5H29.1796V66.5ZM20.7996 67V42.4H19.7996V67H20.7996ZM42.5193 64.78L42.156 65.1236L42.1609 65.1287L42.5193 64.78ZM40.4193 22.6V22.1H39.9193V22.6H40.4193ZM49.2993 22.6H49.7993V22.1H49.2993V22.6ZM49.2993 60.1H48.7993V60.6H49.2993V60.1ZM53.2593 60.1H53.7593V59.6H53.2593V60.1ZM53.2593 67V67.5H53.7593V67H53.2593ZM49.2393 66.5C46.2706 66.5 44.1868 65.7769 42.8777 64.4313L42.1609 65.1287C43.7318 66.7431 46.128 67.5 49.2393 67.5V66.5ZM42.8825 64.4364C41.5988 63.0793 40.9193 61.0807 40.9193 58.36H39.9193C39.9193 61.2393 40.6398 63.5207 42.1561 65.1236L42.8825 64.4364ZM40.9193 58.36V22.6H39.9193V58.36H40.9193ZM40.4193 23.1H49.2993V22.1H40.4193V23.1ZM48.7993 22.6V60.1H49.7993V22.6H48.7993ZM49.2993 60.6H53.2593V59.6H49.2993V60.6ZM52.7593 60.1V67H53.7593V60.1H52.7593ZM53.2593 66.5H49.2393V67.5H53.2593V66.5ZM59.0634 30.94L58.7013 31.2848L58.7097 31.2937L58.7185 31.3021L59.0634 30.94ZM59.0634 23.32L58.7098 22.9664H58.7098L59.0634 23.32ZM66.9234 23.32L66.5613 23.6648L66.5697 23.6737L66.5785 23.6821L66.9234 23.32ZM66.9234 30.94L67.2769 31.2936L66.9234 30.94ZM58.5834 35.5V35H58.0834V35.5H58.5834ZM67.4634 35.5H67.9634V35H67.4634V35.5ZM67.4634 67V67.5H67.9634V67H67.4634ZM58.5834 67H58.0834V67.5H58.5834V67ZM63.0234 31.64C61.2832 31.64 60.1152 31.2513 59.4082 30.5779L58.7185 31.3021C59.6915 32.2287 61.1635 32.64 63.0234 32.64V31.64ZM59.4254 30.5952C58.7235 29.8581 58.3634 28.9261 58.3634 27.76H57.3634C57.3634 29.1539 57.8032 30.3419 58.7013 31.2848L59.4254 30.5952ZM58.3634 27.76V26.44H57.3634V27.76H58.3634ZM58.3634 26.44C58.3634 25.2736 58.7233 24.3672 59.4169 23.6735L58.7098 22.9664C57.8034 23.8728 57.3634 25.0464 57.3634 26.44H58.3634ZM59.4169 23.6736C60.1244 22.966 61.2887 22.56 63.0234 22.56V21.56C61.158 21.56 59.6823 21.9939 58.7098 22.9664L59.4169 23.6736ZM63.0234 22.56C64.7607 22.56 65.8968 22.9671 66.5613 23.6648L67.2854 22.9752C66.3499 21.9928 64.8861 21.56 63.0234 21.56V22.56ZM66.5785 23.6821C67.3086 24.3774 67.6834 25.2812 67.6834 26.44H68.6834C68.6834 25.0388 68.2181 23.8626 67.2682 22.9579L66.5785 23.6821ZM67.6834 26.44V27.76H68.6834V26.44H67.6834ZM67.6834 27.76C67.6834 28.9187 67.3083 29.8479 66.5698 30.5864L67.2769 31.2936C68.2184 30.352 68.6834 29.1612 68.6834 27.76H67.6834ZM66.5698 30.5864C65.9061 31.2501 64.7663 31.64 63.0234 31.64V32.64C64.8804 32.64 66.3406 32.2299 67.2769 31.2936L66.5698 30.5864ZM58.5834 36H67.4634V35H58.5834V36ZM66.9634 35.5V67H67.9634V35.5H66.9634ZM67.4634 66.5H58.5834V67.5H67.4634V66.5ZM59.0834 67V35.5H58.0834V67H59.0834ZM72.6913 67L72.2717 66.7281L71.7716 67.5H72.6913V67ZM83.0713 50.98L83.4909 51.2519L83.6691 50.9769L83.4881 50.7038L83.0713 50.98ZM72.8113 35.5V35H71.8801L72.3946 35.7762L72.8113 35.5ZM82.8913 35.5L83.3212 35.2447L83.1759 35H82.8913V35.5ZM88.7713 45.4L88.3414 45.6553L88.4868 45.9H88.7713V45.4ZM89.0113 45.4V45.9H89.3004L89.4446 45.6495L89.0113 45.4ZM94.7113 35.5V35H94.4223L94.278 35.2505L94.7113 35.5ZM104.071 35.5L104.488 35.7759L105.002 35H104.071V35.5ZM93.6313 51.28L93.2143 51.0041L93.0309 51.2813L93.2155 51.5577L93.6313 51.28ZM104.131 67V67.5H105.067L104.547 66.7223L104.131 67ZM94.0513 67L93.6208 67.2543L93.7659 67.5H94.0513V67ZM87.9913 56.74L88.4218 56.4857L88.2767 56.24H87.9913V56.74ZM87.7513 56.74V56.24H87.4601L87.3164 56.4933L87.7513 56.74ZM81.9313 67V67.5H82.2225L82.3662 67.2467L81.9313 67ZM73.1109 67.2719L83.4909 51.2519L82.6517 50.7081L72.2717 66.7281L73.1109 67.2719ZM83.4881 50.7038L73.2281 35.2238L72.3946 35.7762L82.6546 51.2562L83.4881 50.7038ZM72.8113 36H82.8913V35H72.8113V36ZM82.4614 35.7553L88.3414 45.6553L89.2012 45.1447L83.3212 35.2447L82.4614 35.7553ZM88.7713 45.9H89.0113V44.9H88.7713V45.9ZM89.4446 45.6495L95.1446 35.7495L94.278 35.2505L88.578 45.1505L89.4446 45.6495ZM94.7113 36H104.071V35H94.7113V36ZM103.654 35.2241L93.2143 51.0041L94.0483 51.5559L104.488 35.7759L103.654 35.2241ZM93.2155 51.5577L103.716 67.2777L104.547 66.7223L94.0471 51.0023L93.2155 51.5577ZM104.131 66.5H94.0513V67.5H104.131V66.5ZM94.4818 66.7457L88.4218 56.4857L87.5608 56.9943L93.6208 67.2543L94.4818 66.7457ZM87.9913 56.24H87.7513V57.24H87.9913V56.24ZM87.3164 56.4933L81.4964 66.7533L82.3662 67.2467L88.1862 56.9867L87.3164 56.4933ZM81.9313 66.5H72.6913V67.5H81.9313V66.5ZM112.091 66.28L111.874 66.7307L111.882 66.734L112.091 66.28ZM106.511 62.08L106.156 61.7285L105.822 62.066L106.142 62.4167L106.511 62.08ZM111.731 56.8L112.102 56.4649L111.748 56.0722L111.376 56.4485L111.731 56.8ZM115.451 59.74L115.685 59.2981L115.451 59.74ZM123.731 60.04L124.035 60.4372L124.042 60.4317L124.049 60.426L123.731 60.04ZM121.571 55.18L121.637 54.6843L121.632 54.6837L121.571 55.18ZM118.151 54.76L118.09 55.2562L118.09 55.2563L118.151 54.76ZM108.371 40.9L107.918 40.6878L107.915 40.6942L108.371 40.9ZM110.831 37.66L111.154 38.0417L111.155 38.0406L110.831 37.66ZM114.671 35.56L114.825 36.0357L114.833 36.0331L114.671 35.56ZM124.091 35.14L123.996 35.6309L124.005 35.6326L124.014 35.634L124.091 35.14ZM127.451 36.1L127.243 36.5545L127.254 36.5597L127.265 36.5642L127.451 36.1ZM130.151 37.66L129.839 38.0504L129.849 38.0589L129.861 38.0669L130.151 37.66ZM132.611 39.7L132.969 40.0494L133.323 39.6867L132.956 39.3375L132.611 39.7ZM127.511 44.92L127.158 45.2736L127.515 45.6312L127.869 45.2694L127.511 44.92ZM124.091 42.58L123.873 43.0301L123.882 43.0342L123.891 43.0381L124.091 42.58ZM116.711 46.3L116.343 46.6379L116.357 46.6539L116.373 46.6686L116.711 46.3ZM119.351 47.26L119.274 47.7541L119.284 47.7555L119.351 47.26ZM122.891 47.74L122.824 48.2355L122.825 48.2356L122.891 47.74ZM129.551 64.78L129.862 65.1718L129.864 65.1704L129.551 64.78ZM125.291 66.94L125.143 66.4623L125.14 66.4634L125.291 66.94ZM119.771 67.22C116.781 67.22 114.297 66.7475 112.301 65.826L111.882 66.734C114.045 67.7325 116.681 68.22 119.771 68.22V67.22ZM112.308 65.8294C110.289 64.8587 108.48 63.4985 106.881 61.7433L106.142 62.4167C107.822 64.2615 109.734 65.7013 111.875 66.7306L112.308 65.8294ZM106.867 62.4315L112.087 57.1515L111.376 56.4485L106.156 61.7285L106.867 62.4315ZM111.36 57.1351C112.516 58.4147 113.801 59.4323 115.217 60.1819L115.685 59.2981C114.381 58.6077 113.186 57.6653 112.102 56.4649L111.36 57.1351ZM115.217 60.1819C116.657 60.9444 118.279 61.32 120.071 61.32V60.32C118.423 60.32 116.965 59.9756 115.685 59.2981L115.217 60.1819ZM120.071 61.32C121.845 61.32 123.214 61.065 124.035 60.4372L123.427 59.6428C122.888 60.055 121.817 60.32 120.071 60.32V61.32ZM124.049 60.426C124.85 59.7662 125.251 58.8818 125.251 57.82H124.251C124.251 58.5982 123.972 59.1938 123.413 59.654L124.049 60.426ZM125.251 57.82C125.251 56.9439 124.929 56.2081 124.276 55.6653C123.643 55.1405 122.743 54.8304 121.637 54.6843L121.506 55.6757C122.52 55.8096 123.209 56.0795 123.637 56.4347C124.043 56.7719 124.251 57.2161 124.251 57.82H125.251ZM121.632 54.6837L118.212 54.2637L118.09 55.2563L121.51 55.6763L121.632 54.6837ZM118.213 54.2638C114.728 53.8307 112.188 52.8246 110.524 51.3012C108.875 49.7919 108.031 47.7254 108.031 45.04H107.031C107.031 47.9546 107.958 50.3081 109.849 52.0388C111.724 53.7554 114.494 54.8093 118.09 55.2562L118.213 54.2638ZM108.031 45.04C108.031 43.5826 108.299 42.2739 108.827 41.1058L107.915 40.6942C107.323 42.0061 107.031 43.4574 107.031 45.04H108.031ZM108.824 41.1122C109.395 39.8949 110.171 38.8734 111.154 38.0417L110.508 37.2783C109.411 38.2066 108.548 39.3451 107.918 40.6878L108.824 41.1122ZM111.155 38.0406C112.181 37.1671 113.402 36.4974 114.825 36.0356L114.517 35.0844C112.981 35.5826 111.641 36.3129 110.507 37.2794L111.155 38.0406ZM114.833 36.0331C116.293 35.5336 117.937 35.28 119.771 35.28V34.28C117.845 34.28 116.089 34.5464 114.509 35.0869L114.833 36.0331ZM119.771 35.28C121.388 35.28 122.795 35.3984 123.996 35.6309L124.186 34.6491C122.907 34.4016 121.434 34.28 119.771 34.28V35.28ZM124.014 35.634C125.259 35.8285 126.333 36.1374 127.243 36.5545L127.66 35.6455C126.65 35.1826 125.484 34.8515 124.168 34.646L124.014 35.634ZM127.265 36.5642C128.222 36.9469 129.079 37.4427 129.839 38.0504L130.464 37.2696C129.623 36.5973 128.68 36.0531 127.637 35.6358L127.265 36.5642ZM129.861 38.0669C130.68 38.6525 131.483 39.3174 132.267 40.0625L132.956 39.3375C132.14 38.5626 131.302 37.8675 130.442 37.2531L129.861 38.0669ZM132.254 39.3506L127.154 44.5706L127.869 45.2694L132.969 40.0494L132.254 39.3506ZM127.865 44.5664C126.821 43.5229 125.629 42.7072 124.292 42.1219L123.891 43.0381C125.113 43.5728 126.201 44.3171 127.158 45.2736L127.865 44.5664ZM124.309 42.1299C123.004 41.4985 121.65 41.18 120.251 41.18V42.18C121.492 42.18 122.698 42.4615 123.873 43.0301L124.309 42.1299ZM120.251 41.18C118.706 41.18 117.487 41.4184 116.711 42L117.311 42.8C117.816 42.4216 118.756 42.18 120.251 42.18V41.18ZM116.711 42C115.945 42.5744 115.551 43.3626 115.551 44.32H116.551C116.551 43.6774 116.797 43.1856 117.311 42.8L116.711 42ZM115.551 44.32C115.551 45.2477 115.796 46.0413 116.343 46.6379L117.08 45.9621C116.747 45.5987 116.551 45.0723 116.551 44.32H115.551ZM116.373 46.6686C116.969 47.2143 117.976 47.5513 119.274 47.754L119.428 46.766C118.166 46.5687 117.414 46.2657 117.049 45.9314L116.373 46.6686ZM119.284 47.7555L122.824 48.2355L122.958 47.2445L119.418 46.7645L119.284 47.7555ZM122.825 48.2356C126.231 48.6884 128.713 49.6842 130.339 51.1692C131.949 52.6397 132.771 54.6369 132.771 57.22H133.771C133.771 54.4031 132.863 52.1203 131.013 50.4308C129.179 48.7558 126.471 47.7116 122.957 47.2444L122.825 48.2356ZM132.771 57.22C132.771 58.6673 132.467 59.9901 131.864 61.1964L132.758 61.6436C133.435 60.2899 133.771 58.8127 133.771 57.22H132.771ZM131.864 61.1964C131.259 62.407 130.387 63.4714 129.239 64.3896L129.864 65.1704C131.116 64.1686 132.084 62.993 132.758 61.6436L131.864 61.1964ZM129.24 64.3883C128.137 65.2633 126.775 65.9573 125.143 66.4624L125.439 67.4176C127.167 66.8827 128.645 66.1367 129.862 65.1717L129.24 64.3883ZM125.14 66.4634C123.557 66.9653 121.769 67.22 119.771 67.22V68.22C121.853 68.22 123.745 67.9547 125.442 67.4166L125.14 66.4634ZM142.877 64.66L142.523 65.0136L142.528 65.018L142.877 64.66ZM140.537 42.4H141.037V41.9H140.537V42.4ZM136.097 42.4H135.597V42.9H136.097V42.4ZM136.097 35.5V35H135.597V35.5H136.097ZM140.777 34.66L141.17 34.9689L141.175 34.9624L141.18 34.9557L140.777 34.66ZM141.437 26.98V26.48H140.937V26.98H141.437ZM149.417 26.98H149.917V26.48H149.417V26.98ZM149.417 35.5H148.917V36H149.417V35.5ZM155.657 35.5H156.157V35H155.657V35.5ZM155.657 42.4V42.9H156.157V42.4H155.657ZM149.417 42.4V41.9H148.917V42.4H149.417ZM149.417 60.1H148.917V60.6H149.417V60.1ZM155.177 60.1H155.677V59.6H155.177V60.1ZM155.177 67V67.5H155.677V67H155.177ZM149.897 66.5C146.897 66.5 144.702 65.7411 143.226 64.302L142.528 65.018C144.252 66.6989 146.737 67.5 149.897 67.5V66.5ZM143.23 64.3064C141.794 62.8699 141.037 60.7363 141.037 57.82H140.037C140.037 60.9037 140.84 63.3301 142.523 65.0135L143.23 64.3064ZM141.037 57.82V42.4H140.037V57.82H141.037ZM140.537 41.9H136.097V42.9H140.537V41.9ZM136.597 42.4V35.5H135.597V42.4H136.597ZM136.097 36H138.317V35H136.097V36ZM138.317 36C139.567 36 140.586 35.7122 141.17 34.9689L140.384 34.3511C140.088 34.7278 139.466 35 138.317 35V36ZM141.18 34.9557C141.706 34.239 141.937 33.2802 141.937 32.14H140.937C140.937 33.1598 140.728 33.881 140.374 34.3643L141.18 34.9557ZM141.937 32.14V26.98H140.937V32.14H141.937ZM141.437 27.48H149.417V26.48H141.437V27.48ZM148.917 26.98V35.5H149.917V26.98H148.917ZM149.417 36H155.657V35H149.417V36ZM155.157 35.5V42.4H156.157V35.5H155.157ZM155.657 41.9H149.417V42.9H155.657V41.9ZM148.917 42.4V60.1H149.917V42.4H148.917ZM149.417 60.6H155.177V59.6H149.417V60.6ZM154.677 60.1V67H155.677V60.1H154.677ZM155.177 66.5H149.897V67.5H155.177V66.5ZM168.311 66.58L168.115 67.0402L168.124 67.0436L168.311 66.58ZM163.511 63.28L163.137 63.6122L163.142 63.6177L163.147 63.623L163.511 63.28ZM160.571 58.06L160.094 58.2097L160.097 58.2181L160.571 58.06ZM160.571 44.5L161.047 44.6524L161.048 44.6497L160.571 44.5ZM163.391 39.28L163.017 38.9478L163.012 38.9537L163.391 39.28ZM168.071 35.98L168.262 36.4422L168.271 36.4385L168.071 35.98ZM181.031 36.1L180.815 36.5511L180.819 36.5528L181.031 36.1ZM185.591 39.64L185.198 39.9485L185.203 39.9549L185.591 39.64ZM188.171 44.8L187.688 44.9283L187.691 44.94L188.171 44.8ZM189.011 53.5V54H189.511V53.5H189.011ZM168.791 53.5V53H168.291V53.5H168.791ZM170.471 58.96L170.1 59.2952L170.106 59.3012L170.471 58.96ZM180.251 59.68L180.515 60.1049L180.525 60.0982L180.251 59.68ZM183.491 56.98L183.881 56.6666L183.525 56.2238L183.131 56.6334L183.491 56.98ZM187.931 62.5L188.311 62.8246L188.58 62.5095L188.321 62.1866L187.931 62.5ZM182.411 66.34L182.224 65.8763L182.221 65.8775L182.411 66.34ZM170.291 43.12L169.913 42.7925L169.912 42.7935L170.291 43.12ZM168.791 48.28H168.291V48.78H168.791V48.28ZM179.831 48.28V48.78H180.331V48.28H179.831ZM178.511 43.12L178.102 43.4067L178.107 43.4146L178.113 43.4222L178.511 43.12ZM174.731 67.22C172.384 67.22 170.309 66.8484 168.499 66.1164L168.124 67.0436C170.073 67.8316 172.279 68.22 174.731 68.22V67.22ZM168.507 66.1199C166.686 65.3452 165.145 64.2837 163.875 62.937L163.147 63.623C164.518 65.0763 166.176 66.2148 168.115 67.0401L168.507 66.1199ZM163.885 62.9478C162.655 61.564 161.707 59.8851 161.046 57.9019L160.097 58.2181C160.796 60.3149 161.808 62.116 163.137 63.6122L163.885 62.9478ZM161.048 57.9103C160.426 55.9265 160.111 53.6981 160.111 51.22H159.111C159.111 53.7819 159.436 56.1135 160.094 58.2097L161.048 57.9103ZM160.111 51.22C160.111 48.7826 160.426 46.5951 161.047 44.6524L160.095 44.3476C159.437 46.4049 159.111 48.6974 159.111 51.22H160.111ZM161.048 44.6497C161.67 42.6665 162.58 40.9886 163.77 39.6063L163.012 38.9537C161.723 40.4514 160.752 42.2535 160.094 44.3503L161.048 44.6497ZM163.765 39.6122C164.993 38.2307 166.49 37.1742 168.262 36.4421L167.88 35.5179C165.973 36.3058 164.349 37.4493 163.017 38.9478L163.765 39.6122ZM168.271 36.4385C170.038 35.6703 172.068 35.28 174.371 35.28V34.28C171.955 34.28 169.785 34.6897 167.872 35.5215L168.271 36.4385ZM174.371 35.28C176.916 35.28 179.059 35.7109 180.815 36.5511L181.247 35.6489C179.324 34.7291 177.026 34.28 174.371 34.28V35.28ZM180.819 36.5528C182.636 37.4031 184.091 38.5363 185.198 39.9484L185.985 39.3316C184.771 37.7837 183.187 36.5569 181.243 35.6472L180.819 36.5528ZM185.203 39.9549C186.356 41.3766 187.185 43.032 187.688 44.9282L188.654 44.6718C188.118 42.648 187.227 40.8634 185.98 39.3251L185.203 39.9549ZM187.691 44.94C188.237 46.8119 188.511 48.7845 188.511 50.86H189.511C189.511 48.6955 189.225 46.6281 188.651 44.66L187.691 44.94ZM188.511 50.86V53.5H189.511V50.86H188.511ZM189.011 53H168.791V54H189.011V53ZM168.291 53.5V53.98H169.291V53.5H168.291ZM168.291 53.98C168.291 56.1522 168.878 57.9422 170.1 59.2951L170.842 58.6249C169.824 57.4978 169.291 55.9678 169.291 53.98H168.291ZM170.106 59.3012C171.357 60.6416 173.277 61.26 175.751 61.26V60.26C173.425 60.26 171.826 59.6784 170.837 58.6188L170.106 59.3012ZM175.751 61.26C177.653 61.26 179.253 60.8882 180.515 60.1048L179.987 59.2552C178.93 59.9118 177.529 60.26 175.751 60.26V61.26ZM180.525 60.0982C181.718 59.3168 182.827 58.3925 183.852 57.3266L183.131 56.6334C182.156 57.6475 181.105 58.5232 179.977 59.2618L180.525 60.0982ZM183.102 57.2934L187.542 62.8134L188.321 62.1866L183.881 56.6666L183.102 57.2934ZM187.551 62.1754C186.21 63.746 184.44 64.9822 182.224 65.8763L182.598 66.8037C184.942 65.8578 186.852 64.534 188.311 62.8246L187.551 62.1754ZM182.221 65.8775C180.052 66.7685 177.558 67.22 174.731 67.22V68.22C177.664 68.22 180.291 67.7515 182.601 66.8025L182.221 65.8775ZM174.551 40.82C172.628 40.82 171.062 41.4676 169.913 42.7925L170.669 43.4475C171.601 42.3724 172.875 41.82 174.551 41.82V40.82ZM169.912 42.7935C168.814 44.0673 168.291 45.7545 168.291 47.8H169.291C169.291 45.9255 169.768 44.4927 170.67 43.4465L169.912 42.7935ZM168.291 47.8V48.28H169.291V47.8H168.291ZM168.791 48.78H179.831V47.78H168.791V48.78ZM180.331 48.28V47.74H179.331V48.28H180.331ZM180.331 47.74C180.331 45.7456 179.874 44.0888 178.91 42.8178L178.113 43.4222C178.909 44.4711 179.331 45.8944 179.331 47.74H180.331ZM178.921 42.8333C177.965 41.4684 176.472 40.82 174.551 40.82V41.82C176.23 41.82 177.377 42.3716 178.102 43.4067L178.921 42.8333ZM195.283 67H194.783V67.5H195.283V67ZM195.283 35.5V35H194.783V35.5H195.283ZM204.163 35.5H204.663V35H204.163V35.5ZM204.163 42.34H203.663V42.84H204.163V42.34ZM204.463 42.34V42.84H204.88L204.955 42.4294L204.463 42.34ZM205.303 39.82L205.75 40.0436L205.754 40.035L205.303 39.82ZM206.863 37.6L206.52 37.2359L206.514 37.2411L206.509 37.2464L206.863 37.6ZM209.263 36.1L209.445 36.5656L209.453 36.5622L209.462 36.5585L209.263 36.1ZM214.063 35.5H214.563V35H214.063V35.5ZM214.063 43.78V44.28H214.563V43.78H214.063ZM206.023 44.8L205.788 44.3584L205.782 44.3616L206.023 44.8ZM204.163 67V67.5H204.663V67H204.163ZM195.783 67V35.5H194.783V67H195.783ZM195.283 36H204.163V35H195.283V36ZM203.663 35.5V42.34H204.663V35.5H203.663ZM204.163 42.84H204.463V41.84H204.163V42.84ZM204.955 42.4294C205.106 41.5961 205.371 40.8012 205.75 40.0436L204.855 39.5964C204.434 40.4388 204.139 41.3239 203.971 42.2506L204.955 42.4294ZM205.754 40.035C206.13 39.2449 206.618 38.5521 207.216 37.9536L206.509 37.2464C205.828 37.9279 205.275 38.7151 204.851 39.605L205.754 40.035ZM207.205 37.9641C207.836 37.3704 208.581 36.9037 209.445 36.5656L209.08 35.6344C208.104 36.0163 207.249 36.5496 206.52 37.2359L207.205 37.9641ZM209.462 36.5585C210.306 36.1915 211.315 36 212.503 36V35C211.21 35 210.059 35.2085 209.063 35.6415L209.462 36.5585ZM212.503 36H214.063V35H212.503V36ZM213.563 35.5V43.78H214.563V35.5H213.563ZM214.063 43.28H211.843V44.28H214.063V43.28ZM211.843 43.28C209.216 43.28 207.177 43.6205 205.788 44.3584L206.257 45.2416C207.428 44.6195 209.269 44.28 211.843 44.28V43.28ZM205.782 44.3616C204.333 45.1563 203.663 46.6212 203.663 48.58H204.663C204.663 46.8588 205.232 45.8037 206.263 45.2384L205.782 44.3616ZM203.663 48.58V67H204.663V48.58H203.663ZM204.163 66.5H195.283V67.5H204.163V66.5Z" fill="#D82190" fill-opacity="0.69"/>
</g>
<path d="M135.487 74.53H139.792C140.662 74.53 141.342 74.775 141.832 75.265C142.332 75.755 142.582 76.41 142.582 77.23C142.582 77.62 142.527 77.95 142.417 78.22C142.307 78.49 142.167 78.715 141.997 78.895C141.827 79.065 141.642 79.195 141.442 79.285C141.242 79.365 141.057 79.42 140.887 79.45V79.54C141.077 79.55 141.287 79.6 141.517 79.69C141.757 79.78 141.982 79.925 142.192 80.125C142.402 80.315 142.577 80.565 142.717 80.875C142.867 81.175 142.942 81.54 142.942 81.97C142.942 82.4 142.872 82.8 142.732 83.17C142.602 83.54 142.417 83.86 142.177 84.13C141.937 84.4 141.652 84.615 141.322 84.775C140.992 84.925 140.632 85 140.242 85H135.487V74.53ZM136.747 83.89H139.852C140.392 83.89 140.817 83.755 141.127 83.485C141.437 83.205 141.592 82.8 141.592 82.27V81.76C141.592 81.23 141.437 80.83 141.127 80.56C140.817 80.28 140.392 80.14 139.852 80.14H136.747V83.89ZM136.747 79.06H139.642C140.142 79.06 140.532 78.935 140.812 78.685C141.092 78.435 141.232 78.075 141.232 77.605V77.095C141.232 76.625 141.092 76.265 140.812 76.015C140.532 75.765 140.142 75.64 139.642 75.64H136.747V79.06ZM145.167 85V77.26H146.367V78.685H146.442C146.582 78.315 146.832 77.985 147.192 77.695C147.552 77.405 148.047 77.26 148.677 77.26H149.142V78.46H148.437C147.787 78.46 147.277 78.585 146.907 78.835C146.547 79.075 146.367 79.38 146.367 79.75V85H145.167ZM153.526 85.18C153.006 85.18 152.531 85.085 152.101 84.895C151.671 84.705 151.301 84.435 150.991 84.085C150.691 83.725 150.456 83.3 150.286 82.81C150.116 82.31 150.031 81.75 150.031 81.13C150.031 80.52 150.116 79.965 150.286 79.465C150.456 78.965 150.691 78.54 150.991 78.19C151.301 77.83 151.671 77.555 152.101 77.365C152.531 77.175 153.006 77.08 153.526 77.08C154.046 77.08 154.516 77.175 154.936 77.365C155.366 77.555 155.736 77.83 156.046 78.19C156.356 78.54 156.596 78.965 156.766 79.465C156.936 79.965 157.021 80.52 157.021 81.13C157.021 81.75 156.936 82.31 156.766 82.81C156.596 83.3 156.356 83.725 156.046 84.085C155.736 84.435 155.366 84.705 154.936 84.895C154.516 85.085 154.046 85.18 153.526 85.18ZM153.526 84.115C154.176 84.115 154.706 83.915 155.116 83.515C155.526 83.115 155.731 82.505 155.731 81.685V80.575C155.731 79.755 155.526 79.145 155.116 78.745C154.706 78.345 154.176 78.145 153.526 78.145C152.876 78.145 152.346 78.345 151.936 78.745C151.526 79.145 151.321 79.755 151.321 80.575V81.685C151.321 82.505 151.526 83.115 151.936 83.515C152.346 83.915 152.876 84.115 153.526 84.115ZM158.111 77.26H159.281L160.106 80.605L160.931 83.995H160.961L161.906 80.605L162.881 77.26H163.946L164.951 80.605L165.911 83.995H165.941L166.736 80.605L167.576 77.26H168.701L166.646 85H165.161L164.081 81.28L163.406 78.925H163.376L162.716 81.28L161.636 85H160.181L158.111 77.26ZM172.731 85.18C172.011 85.18 171.406 85.045 170.916 84.775C170.436 84.495 170.021 84.125 169.671 83.665L170.526 82.975C170.826 83.355 171.161 83.65 171.531 83.86C171.901 84.06 172.331 84.16 172.821 84.16C173.331 84.16 173.726 84.05 174.006 83.83C174.296 83.61 174.441 83.3 174.441 82.9C174.441 82.6 174.341 82.345 174.141 82.135C173.951 81.915 173.601 81.765 173.091 81.685L172.476 81.595C172.116 81.545 171.786 81.47 171.486 81.37C171.186 81.26 170.921 81.12 170.691 80.95C170.471 80.77 170.296 80.55 170.166 80.29C170.046 80.03 169.986 79.72 169.986 79.36C169.986 78.98 170.056 78.65 170.196 78.37C170.336 78.08 170.526 77.84 170.766 77.65C171.016 77.46 171.311 77.32 171.651 77.23C171.991 77.13 172.356 77.08 172.746 77.08C173.376 77.08 173.901 77.19 174.321 77.41C174.751 77.63 175.126 77.935 175.446 78.325L174.651 79.045C174.481 78.805 174.231 78.59 173.901 78.4C173.571 78.2 173.156 78.1 172.656 78.1C172.156 78.1 171.776 78.21 171.516 78.43C171.266 78.64 171.141 78.93 171.141 79.3C171.141 79.68 171.266 79.955 171.516 80.125C171.776 80.295 172.146 80.42 172.626 80.5L173.226 80.59C174.086 80.72 174.696 80.97 175.056 81.34C175.416 81.7 175.596 82.175 175.596 82.765C175.596 83.515 175.341 84.105 174.831 84.535C174.321 84.965 173.621 85.18 172.731 85.18ZM180.625 85.18C180.095 85.18 179.615 85.085 179.185 84.895C178.765 84.705 178.4 84.435 178.09 84.085C177.79 83.725 177.555 83.3 177.385 82.81C177.225 82.31 177.145 81.75 177.145 81.13C177.145 80.52 177.225 79.965 177.385 79.465C177.555 78.965 177.79 78.54 178.09 78.19C178.4 77.83 178.765 77.555 179.185 77.365C179.615 77.175 180.095 77.08 180.625 77.08C181.145 77.08 181.61 77.175 182.02 77.365C182.43 77.555 182.78 77.82 183.07 78.16C183.36 78.49 183.58 78.885 183.73 79.345C183.89 79.805 183.97 80.31 183.97 80.86V81.43H178.405V81.79C178.405 82.12 178.455 82.43 178.555 82.72C178.665 83 178.815 83.245 179.005 83.455C179.205 83.665 179.445 83.83 179.725 83.95C180.015 84.07 180.34 84.13 180.7 84.13C181.19 84.13 181.615 84.015 181.975 83.785C182.345 83.555 182.63 83.225 182.83 82.795L183.685 83.41C183.435 83.94 183.045 84.37 182.515 84.7C181.985 85.02 181.355 85.18 180.625 85.18ZM180.625 78.085C180.295 78.085 179.995 78.145 179.725 78.265C179.455 78.375 179.22 78.535 179.02 78.745C178.83 78.955 178.68 79.205 178.57 79.495C178.46 79.775 178.405 80.085 178.405 80.425V80.53H182.68V80.365C182.68 79.675 182.49 79.125 182.11 78.715C181.74 78.295 181.245 78.085 180.625 78.085ZM188.683 77.26H189.853L190.678 80.605L191.503 83.995H191.533L192.478 80.605L193.453 77.26H194.518L195.523 80.605L196.483 83.995H196.513L197.308 80.605L198.148 77.26H199.273L197.218 85H195.733L194.653 81.28L193.978 78.925H193.948L193.288 81.28L192.208 85H190.753L188.683 77.26ZM201.606 75.445C201.346 75.445 201.156 75.385 201.036 75.265C200.926 75.135 200.871 74.97 200.871 74.77V74.575C200.871 74.375 200.926 74.215 201.036 74.095C201.156 73.965 201.346 73.9 201.606 73.9C201.866 73.9 202.051 73.965 202.161 74.095C202.281 74.215 202.341 74.375 202.341 74.575V74.77C202.341 74.97 202.281 75.135 202.161 75.265C202.051 75.385 201.866 75.445 201.606 75.445ZM201.006 77.26H202.206V85H201.006V77.26ZM206.466 85C206.046 85 205.726 84.885 205.506 84.655C205.296 84.415 205.191 84.105 205.191 83.725V78.31H203.916V77.26H204.636C204.896 77.26 205.071 77.21 205.161 77.11C205.261 77 205.311 76.815 205.311 76.555V75.115H206.391V77.26H208.086V78.31H206.391V83.95H207.966V85H206.466ZM210.015 73.9H211.215V78.52H211.275C211.465 78.08 211.73 77.73 212.07 77.47C212.42 77.21 212.885 77.08 213.465 77.08C214.265 77.08 214.895 77.34 215.355 77.86C215.825 78.37 216.06 79.095 216.06 80.035V85H214.86V80.245C214.86 78.855 214.275 78.16 213.105 78.16C212.865 78.16 212.63 78.19 212.4 78.25C212.18 78.31 211.98 78.4 211.8 78.52C211.62 78.64 211.475 78.795 211.365 78.985C211.265 79.165 211.215 79.38 211.215 79.63V85H210.015V73.9ZM226.856 83.74H226.796C226.716 83.92 226.616 84.1 226.496 84.28C226.386 84.45 226.246 84.605 226.076 84.745C225.906 84.875 225.701 84.98 225.461 85.06C225.221 85.14 224.941 85.18 224.621 85.18C223.821 85.18 223.186 84.925 222.716 84.415C222.246 83.895 222.011 83.165 222.011 82.225V77.26H223.211V82.015C223.211 83.405 223.801 84.1 224.981 84.1C225.221 84.1 225.451 84.07 225.671 84.01C225.901 83.95 226.101 83.86 226.271 83.74C226.451 83.62 226.591 83.47 226.691 83.29C226.801 83.1 226.856 82.875 226.856 82.615V77.26H228.056V85H226.856V83.74ZM232.936 85.18C232.216 85.18 231.611 85.045 231.121 84.775C230.641 84.495 230.226 84.125 229.876 83.665L230.731 82.975C231.031 83.355 231.366 83.65 231.736 83.86C232.106 84.06 232.536 84.16 233.026 84.16C233.536 84.16 233.931 84.05 234.211 83.83C234.501 83.61 234.646 83.3 234.646 82.9C234.646 82.6 234.546 82.345 234.346 82.135C234.156 81.915 233.806 81.765 233.296 81.685L232.681 81.595C232.321 81.545 231.991 81.47 231.691 81.37C231.391 81.26 231.126 81.12 230.896 80.95C230.676 80.77 230.501 80.55 230.371 80.29C230.251 80.03 230.191 79.72 230.191 79.36C230.191 78.98 230.261 78.65 230.401 78.37C230.541 78.08 230.731 77.84 230.971 77.65C231.221 77.46 231.516 77.32 231.856 77.23C232.196 77.13 232.561 77.08 232.951 77.08C233.581 77.08 234.106 77.19 234.526 77.41C234.956 77.63 235.331 77.935 235.651 78.325L234.856 79.045C234.686 78.805 234.436 78.59 234.106 78.4C233.776 78.2 233.361 78.1 232.861 78.1C232.361 78.1 231.981 78.21 231.721 78.43C231.471 78.64 231.346 78.93 231.346 79.3C231.346 79.68 231.471 79.955 231.721 80.125C231.981 80.295 232.351 80.42 232.831 80.5L233.431 80.59C234.291 80.72 234.901 80.97 235.261 81.34C235.621 81.7 235.801 82.175 235.801 82.765C235.801 83.515 235.546 84.105 235.036 84.535C234.526 84.965 233.826 85.18 232.936 85.18ZM238.476 82.225L238.116 77.575V74.53H239.436V77.575L239.076 82.225H238.476ZM238.776 85.18C238.456 85.18 238.221 85.1 238.071 84.94C237.931 84.78 237.861 84.57 237.861 84.31V84.115C237.861 83.855 237.931 83.645 238.071 83.485C238.221 83.325 238.456 83.245 238.776 83.245C239.096 83.245 239.326 83.325 239.466 83.485C239.616 83.645 239.691 83.855 239.691 84.115V84.31C239.691 84.57 239.616 84.78 239.466 84.94C239.326 85.1 239.096 85.18 238.776 85.18Z" fill="#CFB7B7"/>
<defs>
<filter id="filter0_b_7_70" x="11.8596" y="18.06" width="206.203" height="53.66" filterUnits="userSpaceOnUse" color-interpolation-filters="sRGB">
<feFlood flood-opacity="0" result="BackgroundImageFix"/>
<feGaussianBlur in="BackgroundImage" stdDeviation="2"/>
<feComposite in2="SourceAlpha" operator="in" result="effect1_backgroundBlur_7_70"/>
<feBlend mode="normal" in="SourceGraphic" in2="effect1_backgroundBlur_7_70" result="shape"/>
</filter>
</defs>
</svg>
